<svg width="496" height="496" fill="none"
  xmlns="http://www.w3.org/2000/svg">
  <path d="M248 0C111 0 0 111 0 248s111 248 248 248 248-111 248-248S385 0 248 0zm0 448c-110.5 0-200-89.5-200-200S137.5 48 248 48s200 89.5 200 200-89.5 200-200 200zm101.8-262.2L287.6 248l62.2 62.2c4.7 4.7 4.7 12.3 0 17l-22.6 22.6c-4.7 4.7-12.3 4.7-17 0L248 287.6l-62.2 62.2c-4.7 4.7-12.3 4.7-17 0l-22.6-22.6c-4.7-4.7-4.7-12.3 0-17l62.2-62.2-62.2-62.2c-4.7-4.7-4.7-12.3 0-17l22.6-22.6c4.7-4.7 12.3-4.7 17 0l62.2 62.2 62.2-62.2c4.7-4.7 12.3-4.7 17 0l22.6 22.6c4.7 4.7 4.7 12.3 0 17z" fill="#a197ff"/>
</svg>
